<?xml version="1.0" encoding="UTF-8" standalone="no"?>
<!-- Created with Inkscape (http://www.inkscape.org/) -->

<svg
   width="190.11952mm"
   height="190.31621mm"
   viewBox="0 0 190.11952 190.31621"
   version="1.1"
   id="svg1"
   xmlns:xlink="http://www.w3.org/1999/xlink"
   xmlns="http://www.w3.org/2000/svg"
   xmlns:svg="http://www.w3.org/2000/svg">
  <defs
     id="defs1">
    <linearGradient
       id="linearGradient9">
      <stop
         style="stop-color:#275772;stop-opacity:1;"
         offset="0"
         id="stop9" />
      <stop
         style="stop-color:#265373;stop-opacity:0.30047694;"
         offset="1"
         id="stop10" />
    </linearGradient>
    <linearGradient
       id="linearGradient1">
      <stop
         style="stop-color:#56703c;stop-opacity:1;"
         offset="0"
         id="stop1" />
      <stop
         style="stop-color:#57713d;stop-opacity:0.60000002;"
         offset="1"
         id="stop6" />
    </linearGradient>
    <linearGradient
       id="linearGradient48">
      <stop
         style="stop-color:#275772;stop-opacity:1;"
         offset="0"
         id="stop48" />
      <stop
         style="stop-color:#275372;stop-opacity:0.60147601;"
         offset="1"
         id="stop49" />
    </linearGradient>
    <linearGradient
       id="linearGradient7">
      <stop
         style="stop-color:#56703c;stop-opacity:1;"
         offset="0"
         id="stop7" />
      <stop
         style="stop-color:#56703c;stop-opacity:0.59963101;"
         offset="1"
         id="stop8" />
    </linearGradient>
    <linearGradient
       id="linearGradient2">
      <stop
         style="stop-color:#56703c;stop-opacity:1;"
         offset="0"
         id="stop2" />
      <stop
         style="stop-color:#56703c;stop-opacity:1;"
         offset="0.34963325"
         id="stop4" />
      <stop
         style="stop-color:#275772;stop-opacity:1;"
         offset="0.64547676"
         id="stop5" />
      <stop
         style="stop-color:#275772;stop-opacity:1;"
         offset="1"
         id="stop3" />
    </linearGradient>
    <linearGradient
       xlink:href="#linearGradient2"
       id="linearGradient3"
       x1="-4.8009772"
       y1="100.91536"
       x2="192.98477"
       y2="100.91536"
       gradientUnits="userSpaceOnUse"
       gradientTransform="matrix(0.93755069,0,0,0.93755069,17.512768,6.8361374)" />
    <linearGradient
       xlink:href="#linearGradient7"
       id="linearGradient8"
       x1="77.010872"
       y1="134.62701"
       x2="77.010872"
       y2="52.862915"
       gradientUnits="userSpaceOnUse"
       gradientTransform="translate(4.632167,2.9255792)" />
    <linearGradient
       xlink:href="#linearGradient48"
       id="linearGradient49"
       x1="127.11699"
       y1="132.96165"
       x2="127.11699"
       y2="59.151371"
       gradientUnits="userSpaceOnUse" />
    <mask
       maskUnits="userSpaceOnUse"
       id="mask-powermask-path-effect123">
      <path
         id="mask-powermask-path-effect123_box"
         style="fill:#ffffff;fill-opacity:1"
         d="m 130.9513,88.193347 h 31.09414 V 112.46023 H 130.9513 Z" />
      <path
         id="mask-powermask-path-effect105_box"
         style="fill:#ffffff;fill-opacity:1"
         d="m 130.9513,88.193347 h 31.09414 V 112.46023 H 130.9513 Z" />
    </mask>
    <mask
       maskUnits="userSpaceOnUse"
       id="mask-powermask-path-effect124">
      <path
         id="mask-powermask-path-effect124_box"
         style="fill:#ffffff;fill-opacity:1"
         d="m 130.89537,123.26981 h 34.43123 v 7.4345 h -34.43123 z" />
      <path
         id="mask-powermask-path-effect106_box"
         style="fill:#ffffff;fill-opacity:1"
         d="m 130.89537,123.26981 h 34.43123 v 7.4345 h -34.43123 z" />
    </mask>
    <mask
       maskUnits="userSpaceOnUse"
       id="mask-powermask-path-effect125">
      <path
         id="mask-powermask-path-effect125_box"
         style="fill:#ffffff;fill-opacity:1"
         d="m 99.08429,66.782088 h 45.55597 V 92.578866 H 99.08429 Z" />
      <path
         id="mask-powermask-path-effect107_box"
         style="fill:#ffffff;fill-opacity:1"
         d="m 99.08429,66.782088 h 45.55597 V 92.578866 H 99.08429 Z" />
    </mask>
    <mask
       maskUnits="userSpaceOnUse"
       id="mask-powermask-path-effect126">
      <path
         id="mask-powermask-path-effect126_box"
         style="fill:#ffffff;fill-opacity:1"
         d="m 89.005956,54.069903 h 38.986084 v 19.1604 H 89.005956 Z" />
      <path
         id="mask-powermask-path-effect108_box"
         style="fill:#ffffff;fill-opacity:1"
         d="m 89.005956,54.069903 h 38.986084 v 19.1604 H 89.005956 Z" />
    </mask>
    <mask
       maskUnits="userSpaceOnUse"
       id="mask-powermask-path-effect127">
      <path
         id="mask-powermask-path-effect127_box"
         style="fill:#ffffff;fill-opacity:1"
         d="M 40.688123,87.236943 H 123.97781 V 124.8646 H 40.688123 Z" />
      <path
         id="mask-powermask-path-effect109_box"
         style="fill:#ffffff;fill-opacity:1"
         d="M 40.688123,87.236943 H 123.97781 V 124.8646 H 40.688123 Z" />
    </mask>
    <mask
       maskUnits="userSpaceOnUse"
       id="mask-powermask-path-effect128">
      <path
         id="mask-powermask-path-effect128_box"
         style="fill:#ffffff;fill-opacity:1"
         d="M 95.281377,36.951921 H 121.33665 V 51.934045 H 95.281377 Z" />
      <path
         id="mask-powermask-path-effect110_box"
         style="fill:#ffffff;fill-opacity:1"
         d="M 95.281377,36.951921 H 121.33665 V 51.934045 H 95.281377 Z" />
    </mask>
    <mask
       maskUnits="userSpaceOnUse"
       id="mask-powermask-path-effect129">
      <path
         id="mask-powermask-path-effect129_box"
         style="fill:#ffffff;fill-opacity:1"
         d="M 49.772106,56.400978 H 93.654432 V 90.623583 H 49.772106 Z" />
      <path
         id="mask-powermask-path-effect111_box"
         style="fill:#ffffff;fill-opacity:1"
         d="M 49.772106,56.400978 H 93.654432 V 90.623583 H 49.772106 Z" />
    </mask>
    <mask
       maskUnits="userSpaceOnUse"
       id="mask-powermask-path-effect130">
      <path
         id="mask-powermask-path-effect130_box"
         style="fill:#ffffff;fill-opacity:1"
         d="m 72.338862,41.191734 h 17.06799 v 25.140349 h -17.06799 z" />
      <path
         id="mask-powermask-path-effect112_box"
         style="fill:#ffffff;fill-opacity:1"
         d="m 72.338862,41.191734 h 17.06799 v 25.140349 h -17.06799 z" />
    </mask>
    <mask
       maskUnits="userSpaceOnUse"
       id="mask-powermask-path-effect91">
      <path
         id="mask-powermask-path-effect91_box"
         style="fill:#ffffff;fill-opacity:1"
         d="M 40.185835,17.970503 H 164.94935 V 175.43325 H 40.185835 Z" />
      <g
         id="g91"
         style="display:inline;fill:#000000">
        <path
           style="display:inline;fill:#000000;fill-opacity:1;stroke:#000000;stroke-width:0.2;stroke-dasharray:none;stroke-opacity:1"
           d="m 73.436087,42.2223 c 0,0 0.64128,2.665095 1.437252,5.715208 0.815662,3.125564 1.793764,5.674438 2.410708,7.155099 0.578172,1.387609 1.587156,3.017675 2.433795,4.193797 1.028595,1.42889 2.209562,2.17852 3.018106,2.830136 1.716708,1.383518 4.745938,3.080331 4.745938,3.080331 l 0.773085,-1.321727 c 0,0 -1.886138,-0.523855 -3.773701,-2.044529 -1.224165,-0.98622 -2.702478,-1.939262 -3.670872,-3.15972 -1.531185,-1.929736 -2.432567,-3.39697 -2.432567,-3.39697 l -0.457177,-1.04648 -0.844813,-1.773643 -1.450132,-3.410744 z"
           id="path83"
           mask="url(#mask-powermask-path-effect130)" />
        <path
           id="path84"
           style="display:inline;fill:#000000;fill-opacity:1;stroke:#000000;stroke-width:0.2;stroke-dasharray:none;stroke-opacity:1"
           d="m 59.404126,57.414067 c 0.101395,0.836875 -0.166849,1.313891 -0.04082,2.545064 0.05391,0.526675 -0.01629,1.118003 0.358117,2.051554 1.239377,3.090279 1.45665,3.344645 3.300057,5.738151 1.808887,2.348685 3.626198,3.121397 4.072103,3.388941 0.445907,0.267541 2.022002,1.277504 2.824634,1.723409 0.802629,0.445908 2.229461,1.426549 2.497005,1.961637 0.06953,0.139053 0.253608,0.284136 0.487826,0.422713 -0.07573,-0.02308 -0.149201,-0.04476 -0.220142,-0.06563 -1.516081,-0.445908 -4.072878,-0.327248 -5.351095,-0.178283 -1.289769,0.150311 -3.98489,0.118499 -5.529378,-0.357085 -0.804076,-0.247594 -4.696871,-2.34921 -4.696871,-2.34921 L 50.833077,67.59949 c 2.318711,1.783625 3.789051,3.637593 5.929401,5.510399 2.140349,1.872805 5.883483,3.432396 7.577925,3.432396 1.694444,0 4.851729,-0.254421 5.297634,-0.343601 0.445905,-0.08918 2.955078,0.08155 3.846887,0.349097 0.891813,0.267545 4.726352,1.397653 6.420797,3.002918 0.430675,0.408008 0.818106,0.805144 1.173572,1.189591 -0.382483,-0.03717 -0.889314,-0.05716 -1.306897,0.02635 -0.784646,0.15693 -1.830696,0.261185 -2.615344,0.627352 -0.784649,0.366171 -2.981898,0.628035 -4.760433,0.784965 -1.778534,0.156929 -4.603256,-0.366304 -6.957198,-1.098641 0,10e-7 1.99156,1.161245 3.226159,1.523515 2.562197,0.75183 2.214402,0.725844 3.574459,0.778154 1.360056,0.05231 3.92314,-0.523015 4.44624,-0.732255 0.523097,-0.209241 2.66792,-0.627869 3.19102,-0.627869 0.325278,0 1.439385,-0.06056 2.235522,-0.106454 0.565982,0.670168 1.063154,1.29157 1.568897,1.856218 1.277791,1.426616 2.052545,1.399094 3.656107,2.527494 0.525933,0.37009 5.232239,3.239079 5.232239,3.239079 0,0 -1.872894,-2.943333 -2.140438,-3.300057 -0.267544,-0.356727 -3.482582,-2.278222 -4.941065,-3.388423 -1.229207,-0.935676 -2.671639,-2.845709 -3.652632,-3.737522 -0.980993,-0.891812 -2.894067,-2.407745 -3.96424,-2.675289 -0.71231,-0.178077 -1.735167,-0.89133 -3.054594,-1.333393 -0.408304,-0.562359 -1.879684,-1.352939 -3.269332,-2.623894 -1.080264,-0.987996 -2.213292,-1.419298 -4.730837,-2.978911 -3.726132,-2.308332 -2.996336,-2.631939 -4.7213,-4.771756 -1.479749,-1.835629 -2.029615,-4.088639 -2.029615,-4.088639 z"
           mask="url(#mask-powermask-path-effect129)" />
        <path
           id="path85"
           style="display:inline;fill:#000000;fill-opacity:1;stroke:#000000;stroke-width:0.2;stroke-dasharray:none;stroke-opacity:1"
           d="m 119.69709,38.018351 c 0,0 -1.96221,2.207862 -3.4339,3.924825 -0.8519,0.993887 -3.10723,2.571064 -5.75676,3.681946 -1.91296,0.802058 -3.96524,1.570506 -5.67459,1.921847 -3.2234,0.662542 -8.436173,0.773596 -8.436173,0.773596 2.19e-4,0.0016 0.130921,0.927068 0.614432,1.312581 0.169514,0.13516 3.347601,0.07131 3.347601,0.07131 0,0 2.59712,-0.486276 2.944,-0.486276 0.34688,0 2.93012,-0.785255 3.45044,-1.045414 0.52032,-0.260162 3.02623,-1.077322 3.54655,-1.424202 0.19149,-0.12766 0.68372,-0.373577 1.22939,-0.633553 0.80184,0.286329 1.91511,0.722259 2.46651,1.080037 0.6706,0.435124 0.54035,1.285195 1.99575,2.766756 0.44829,0.456347 4.32015,0.872815 4.32015,0.872815 0,0 -3.64528,-0.987893 -4.0132,-1.294494 -0.36792,-0.306602 -0.9081,-1.540717 -1.03818,-1.757516 -0.13008,-0.2168 -0.50121,-0.908286 -1.15393,-1.442289 -0.39261,-0.3212 -1.03294,-0.59478 -1.44694,-0.751375 0.51278,-0.234563 0.90175,-0.407727 0.90175,-0.407727 0,0 2.38239,-1.79352 2.49649,-1.931149 0.2328,-0.280799 3.64061,-5.231722 3.64061,-5.231722 z"
           mask="url(#mask-powermask-path-effect128)" />
        <path
           id="path86"
           style="display:inline;fill:#000000;fill-opacity:1;stroke:#000000;stroke-width:0.2;stroke-dasharray:none;stroke-opacity:1"
           d="m 65.005334,88.380135 c 0,0 2.89778,1.062841 4.63641,2.994649 1.007828,1.11981 1.983265,2.75869 2.625163,3.938778 -2.772439,-1.543765 -6.295739,-2.934622 -9.193238,-2.586922 -4.829522,0.579543 -10.045381,2.028817 -10.045381,2.028817 0,0 -2.392814,1.470888 -3.938261,1.857251 -1.545447,0.38636 -4.851696,-0.118946 -5.527828,-0.312126 -0.676135,-0.193183 -1.83503,-0.386023 -1.83503,-0.386023 l 3.187402,1.351855 c 0,0 4.909617,0.336708 5.682341,-0.146244 0.772723,-0.482952 3.313214,-1.203392 4.955253,-1.589755 1.642036,-0.38636 4.080491,-0.906299 6.091101,-1.191235 2.280241,-0.323147 3.988981,-0.170942 5.72899,0.604755 1.739373,0.775413 4.081513,2.014327 5.337189,2.78705 1.255675,0.772724 3.634075,2.364335 5.966138,3.978145 4.185762,2.89659 4.514467,2.89763 5.013366,3.2302 0.691364,0.46088 2.347928,0.94115 2.927469,1.23093 0.415496,0.20775 0.358593,0.26953 1.773583,0.40609 -0.80475,0.35236 -1.275174,0.61649 -2.07899,0.93802 -1.307748,0.5231 -1.798988,0.83663 -2.688255,1.30741 -0.889268,0.47079 -2.458617,1.62833 -3.452503,2.36067 -0.993886,0.73234 -2.924559,1.6941 -4.546164,2.11258 -1.621605,0.41848 -4.792644,1.73561 -7.689828,2.18404 -3.157629,0.48874 -5.052332,0.24522 -6.55821,0.29117 -1.375417,0.042 -7.631553,-0.80677 -8.616011,-0.95301 -1.141844,-0.16962 -5.321187,-1.12106 -6.727191,-1.46188 -1.228545,-0.29781 -4.132564,-1.56941 -4.132564,-1.56941 0,0 4.132614,2.19745 4.341854,2.35438 0.209238,0.15693 4.446307,1.4645 5.806364,1.93528 0.557251,0.1929 1.223603,0.30546 1.876888,0.37931 -0.723879,0.40301 -1.550698,0.86774 -1.720309,0.98082 -0.313859,0.20924 -2.234193,1.14421 -3.033923,1.41231 -0.91728,0.3075 -4.027862,0.67971 -4.864819,0.83664 0,0 1.606033,0.26579 1.936832,0.27079 1.326678,0.0202 2.689892,-0.40417 4.060734,-0.76688 1.410523,-0.37321 2.781445,-1.33847 3.147612,-1.54771 0.209849,-0.11991 1.264783,-0.63371 2.127002,-1.05058 0.282696,0.0198 0.530103,0.0395 0.72347,0.0646 1.592053,0.20652 4.784814,0.38743 4.784814,0.38743 0,0 3.890764,0.20824 5.294157,0.027 1.296975,-0.16748 4.446658,-0.7845 5.649784,-0.99374 1.199427,-0.20858 3.750494,-0.72938 4.647262,-1.14721 -0.651365,0.56748 -1.48726,1.33789 -2.084111,2.03656 -0.339767,0.39773 -2.213101,1.75546 -3.191019,2.45825 -0.928686,0.66741 -3.322035,2.04193 -7.323067,2.77244 -1.302843,0.23787 -8.212971,1.41249 -8.892998,1.56942 l 7.471379,-0.72089 c 0,0 5.030667,-0.95296 5.972245,-1.1622 0.941578,-0.20924 2.941208,-1.22502 4.289661,-1.988 1.096443,-0.62039 2.125392,-1.49859 3.306822,-2.41771 1.38061,-1.07406 2.077513,-2.34374 2.71959,-3.29601 1.060984,-0.52053 1.932827,-1.31291 2.373592,-1.60676 0.784649,-0.52309 2.473227,-2.11303 3.343372,-2.60456 1.05031,-0.59331 2.02333,-1.0363 3.164758,-1.53059 0.77422,-0.33527 1.584645,-0.56799 2.585219,-1.09097 0.08766,0.003 1.342059,-0.38136 1.964729,-0.48056 3.061235,-0.0874 5.12747,-0.44478 6.189965,-0.63797 1.062495,-0.19318 6.130796,-0.86906 8.159196,-0.57929 2.0284,0.28977 3.57892,0.40686 5.41414,0.79323 1.83522,0.38636 3.86344,0.8696 5.2157,1.73891 1.35227,0.86932 3.20032,2.03243 3.20032,2.03243 l 1.24282,1.8309 0.99071,-3.41328 -1.15456,-1.04885 c 0,0 -1.78634,-1.74146 -6.06783,-2.93274 -4.22899,-1.17667 -5.08563,-1.2047 -7.59698,-1.2047 -2.51135,0 -5.85739,0.0534 -9.527821,0.72944 -3.670438,0.67614 -8.683825,1.40605 -11.388359,-0.0428 -2.704533,-1.44886 -8.720585,-4.257153 -10.652392,-5.995781 -0.582432,-0.52419 -0.96669,-1.130816 -2.217295,-1.910384 -0.408452,-0.888961 -1.602763,-2.262921 -1.994851,-3.007662 -0.714062,-1.35631 -1.570488,-2.209372 -2.494421,-2.998784 -0.856405,-0.731718 -4.691187,-1.839164 -4.691187,-1.839164 z"
           mask="url(#mask-powermask-path-effect127)" />
        <path
           id="path87"
           style="display:inline;fill:#000000;fill-opacity:1;stroke:#000000;stroke-width:0.2;stroke-dasharray:none;stroke-opacity:1"
           d="m 116.21926,55.168209 c 0,0 -1.66051,0.309599 -2.78639,0.844393 -1.12589,0.534795 -3.24974,1.301129 -3.84083,1.835923 -0.59109,0.534794 -1.94552,2.052785 -2.17069,2.587579 -0.22518,0.534794 -0.85651,1.656528 -1.25057,2.163176 -0.39406,0.506648 -1.54806,2.054721 -1.68879,2.167309 -0.14074,0.112588 -1.57613,1.54771 -1.57613,1.54771 l -1.67741,1.337386 c -2.017154,0.283679 -2.86085,-0.711252 -5.162479,-0.239262 -3.103127,0.636352 -1.773418,0.590965 -5.516976,2.420524 l -0.393774,2.138887 c 0,0 2.768255,-1.920072 3.556372,-2.454866 0.78812,-0.534795 2.080852,-0.635975 2.531205,-0.720415 0.450352,-0.08444 2.241548,0.157133 2.579312,0.185283 0.337765,0.02815 2.7674,0.331735 3.38664,0.247295 0.61923,-0.08444 2.188,-0.767246 3.31574,-1.24761 0.82907,-0.353142 1.98285,-0.811059 2.63024,-1.289561 0.64738,-0.478499 1.11859,-0.610306 1.59709,-0.976216 0.44593,-0.341007 1.82055,-1.025591 2.588,-1.465919 0.78235,0.0428 1.51713,0.11067 1.73045,0.188243 0.30962,0.112588 2.14895,0.356699 2.51486,0.384849 0.36591,0.02815 2.56148,0.337691 3.23701,0.309541 0.67553,-0.02815 2.34261,0.109596 3.4122,-0.256315 1.06959,-0.365914 2.72386,-1.460892 2.72386,-1.460892 0,0 -2.3436,0.792753 -2.45618,0.849043 -0.11259,0.05629 -1.56867,0.192264 -2.07532,0.248564 -0.50664,0.05629 -2.78681,-0.11241 -3.04013,-0.14056 -0.25332,-0.02815 -2.87116,-0.478626 -3.34966,-0.647506 -0.33404,-0.117896 -1.14807,-0.496359 -1.60921,-0.714168 1.35183,-0.55113 3.0336,-1.377643 3.65846,-1.444591 0.78811,-0.08444 2.13897,0.171867 3.65892,0.284455 1.51994,0.112588 1.99332,-0.322409 2.697,-1.110526 0.70368,-0.788117 3.47317,-4.108277 3.47317,-4.108277 0,0 -3.28382,2.796307 -4.74747,3.753307 -1.46365,0.957 -3.32285,0.07638 -4.44873,-0.06437 -1.12588,-0.140734 -5.60938,2.053519 -6.96044,3.235696 -1.1594,1.014489 -3.77103,2.603525 -6.48464,3.456308 0.43353,-0.476631 0.42945,-1.001752 0.74631,-1.307554 0.31885,-0.307728 0.84102,-1.107629 1.37581,-1.811307 0.53479,-0.703675 1.62245,-2.134168 1.81948,-2.612667 0.19702,-0.478502 0.43868,-1.17277 0.9173,-1.676946 0.80338,-0.846278 1.54782,-1.365539 2.11076,-1.703303 0.56294,-0.337764 2.72409,-1.691369 2.72409,-1.691369 z"
           mask="url(#mask-powermask-path-effect126)" />
        <path
           id="path88"
           style="display:inline;fill:#000000;fill-opacity:1;stroke:#000000;stroke-width:0.2;stroke-dasharray:none;stroke-opacity:1"
           d="m 136.30331,67.868209 c 0,0 -2.30624,1.361072 -3.02462,1.62574 -0.71838,0.264665 -2.00101,0.329179 -2.87063,0.329179 -0.86962,0 -1.77433,-0.229411 -3.13831,-0.202571 -1.51963,0.0299 -3.69197,0.610625 -4.65346,1.120861 -0.9405,0.499099 -3.17603,2.382376 -3.85661,3.025139 -0.68057,0.642763 -5.14191,5.482373 -6.6921,7.524088 -1.08151,1.424423 -1.51915,2.112634 -1.78749,2.616895 -2.02089,0.809131 -4.04355,1.767461 -5.20743,2.52491 -2.382,1.550191 -4.8395,3.025139 -4.8395,3.025139 l 1.55029,1.965771 c 0,0 2.80841,-2.620104 5.21476,-4.083236 3.26143,-1.983044 6.19427,-2.777797 6.19427,-2.777797 0,0 3.7727,-0.866919 4.60451,-0.980349 0.83181,-0.113426 4.85586,0.420145 5.95233,0.495765 1.09648,0.07562 4.93803,1.070842 6.68134,0.970953 1.86841,-0.107057 4.73973,-0.84752 5.68497,-1.479449 0.83517,-0.558348 2.88829,-2.178349 2.88829,-2.178349 l 4.55889,-5.582605 c 0,0 -4.29359,3.934699 -4.93636,4.653086 -0.64276,0.718381 -2.36458,1.482111 -6.76318,2.975905 -1.41631,0.480988 -7.18381,-0.65896 -8.20467,-0.84801 -1.02085,-0.189048 -4.85799,-0.661426 -8.02586,-0.329696 -0.8218,0.08606 -0.67767,-0.03609 -2.06137,0.09631 0.53331,-0.782152 0.46038,-1.383383 0.69965,-1.656653 0.7791,-0.889825 1.76242,-2.064824 2.24853,-2.521246 0.45875,-0.430733 3.5242,-3.791829 3.5242,-3.791829 0,0 1.80442,-1.758137 2.33375,-2.022803 0.52934,-0.264668 1.58312,-0.633307 2.41493,-1.011402 0.83181,-0.378094 1.902,-0.655116 2.696,-0.655116 0.794,0 2.23181,0.259336 3.29048,0.108101 1.05867,-0.151238 2.42425,-0.705944 3.36949,-1.121848 0.94524,-0.415906 2.15491,-1.814876 2.15491,-1.814876 z"
           mask="url(#mask-powermask-path-effect125)" />
        <path
           style="display:inline;fill:#000000;fill-opacity:1;stroke:#000000;stroke-width:0.2;stroke-dasharray:none;stroke-opacity:1"
           d="m 133.9271,124.34928 c 0,0 -1.07528,0.60365 7.70425,2.41595 9.27028,1.9136 12.99792,1.45154 15.91996,0.63986 2.92205,-0.81168 6.7326,-1.75712 6.7326,-1.75712 l -5.61926,2.65275 -4.50365,1.2964 c 0,0 -3.65148,0.31076 -6.62661,0.14286 -1.03839,-0.0586 -2.49918,-0.19152 -3.87402,-0.36018 -3.30405,-0.40533 -3.93671,-0.48205 -3.93671,-0.48205 l -2.66845,-0.80835 -3.27966,-1.13884 -1.73228,-1.16249 z"
           id="path89"
           mask="url(#mask-powermask-path-effect124)" />
        <path
           id="path90"
           style="display:inline;fill:#000000;fill-opacity:1;stroke:#000000;stroke-width:0.2;stroke-dasharray:none;stroke-opacity:1"
           d="m 152.43359,89.284989 c 0,0 -4.28271,1.510405 -4.93205,1.835078 -0.64934,0.32467 -3.41998,2.048444 -5.04334,3.02246 -1.62335,0.974016 -4.36424,4.215401 -5.66293,5.676419 -1.29868,1.461034 -4.35034,5.065354 -5.32436,6.039374 l 1.80674,1.77025 c 0,0 1.67099,-2.4017 2.75126,-3.77134 l 3.39824,0.65939 c 0,0 4.67931,0.67915 5.40432,0.71675 1.18373,0.0614 2.55439,0.14623 3.44217,-0.0227 0.15216,0.743 0.63092,2.5707 1.88722,4.20388 1.62336,2.11037 6.26422,1.94252 6.26422,1.94252 l 4.61212,-0.1571 -4.35839,-0.36018 -2.99413,-0.56638 c 0,0 -2.64328,-1.03938 -3.11248,-1.7017 -0.46065,-0.65027 -0.98178,-3.23436 -1.10019,-3.84473 1.15935,-0.59484 2.95021,-1.6185 2.95021,-1.6185 l 5.53041,-4.245741 c 0,0 -4.05838,2.272591 -4.70772,2.597261 -0.64934,0.32468 -4.3499,2.21635 -6.46026,2.54102 -2.11037,0.32467 -4.17721,-0.47044 -5.63823,-0.79511 -1.0857,-0.24126 -3.11064,-0.47645 -3.87315,-0.76871 1.06383,-1.23528 2.83785,-3.515979 3.63441,-4.710825 0.97402,-1.461024 5.35678,-4.383195 5.35678,-4.383195 z"
           mask="url(#mask-powermask-path-effect123)" />
        <path
           id="path91"
           style="display:inline;fill:#000000;stroke:#000000;stroke-width:0.264583"
           d="m 85.251957,126.10716 c 0,0 -6.300313,0.45568 -7.705081,0.95438 -3.970394,1.40949 -6.801869,3.28338 -8.095349,4.73854 -1.293481,1.45517 -3.483815,4.27708 -5.747405,6.37899 -2.26359,2.1019 -6.144314,3.78042 -11.47992,4.26547 0,0 5.706288,0.19124 7.305498,-0.0966 1.959837,-0.35278 4.90763,-1.93039 5.601725,-2.60656 0.590539,-0.57529 3.142607,-3.64299 4.526855,-5.0121 2.854358,-2.82313 4.482091,-3.29075 6.044593,-4.23075 -0.627118,1.60658 -1.69917,4.37718 -1.81281,4.83175 -0.161684,0.64673 -0.855761,3.51637 -0.855761,4.3248 0,0.80842 -1.471288,5.83527 -2.603083,6.96706 -1.131795,1.1318 -6.404119,5.03841 -6.404119,5.03841 l 6.486942,-2.97915 c 0,0 1.790533,-1.65645 2.880961,-4.03231 0.833108,-1.8152 1.30087,-4.06845 1.769025,-6.38702 0.867209,-4.29491 0.759783,-3.49988 1.729893,-5.76347 0.506877,-1.18272 0.626221,-2.17531 0.868258,-2.95763 2.289646,-0.75931 5.070561,-1.27905 5.070561,-1.27905 l 3.550355,0.15313 3.675491,0.60967 2.12733,-2.34606 z" />
      </g>
    </mask>
    <linearGradient
       xlink:href="#linearGradient1"
       id="linearGradient6"
       x1="81.637161"
       y1="137.0575"
       x2="81.637161"
       y2="56.274532"
       gradientUnits="userSpaceOnUse" />
    <linearGradient
       xlink:href="#linearGradient9"
       id="linearGradient10"
       x1="122.843"
       y1="114.20004"
       x2="122.843"
       y2="41.106144"
       gradientUnits="userSpaceOnUse" />
    <clipPath
       clipPathUnits="userSpaceOnUse"
       id="clipPath2">
      <rect
         style="display:none;fill:none;stroke:#000000;stroke-width:0.1;stroke-dasharray:none"
         id="rect2"
         width="23.60383"
         height="9.9037085"
         x="94.745453"
         y="188.33548"
         d="m 94.745453,188.33548 h 23.603827 v 9.90371 H 94.745453 Z" />
      <path
         id="lpe_path-effect2"
         style="fill:none;stroke:#000000;stroke-width:0.1;stroke-dasharray:none"
         class="powerclip"
         d="M 5.7606354,1.4813385 H 205.69673 V 201.41743 H 5.7606354 Z M 94.745453,188.33548 v 9.90371 h 23.603827 v -9.90371 z" />
    </clipPath>
    <linearGradient
       xlink:href="#linearGradient48"
       id="linearGradient4"
       gradientUnits="userSpaceOnUse"
       x1="127.11699"
       y1="132.96165"
       x2="127.11699"
       y2="59.151371" />
  </defs>
  <g
     id="layer1"
     transform="translate(-10.760635,-6.2723475)">
    <rect
       style="display:none;fill:#fcf6f2;fill-opacity:1;stroke:none;stroke-width:0.1"
       id="rect1"
       width="189.9861"
       height="190.31621"
       x="10.894076"
       y="6.272347" />
    <path
       style="display:inline;fill:none;stroke:url(#linearGradient3);stroke-width:4.75;stroke-dasharray:none"
       id="path2"
       clip-path="url(#clipPath2)"
       d="M 198.32173,101.44939 A 92.593048,92.593048 0 0 1 105.72868,194.04243 92.593048,92.593048 0 0 1 13.135635,101.44939 92.593048,92.593048 0 0 1 105.72868,8.8563385 92.593048,92.593048 0 0 1 198.32173,101.44939 Z" />
    <path
       style="display:inline;fill:#443127;fill-opacity:1;stroke:none;stroke-width:1;stroke-dasharray:none;stroke-opacity:1"
       d="m 105.00003,173.09676 1.90347,3.61392 c 0,0 0.58604,0.8022 0.73033,2.37503 0.0882,0.96184 0.16297,2.19022 -0.60639,3.76298 -2.02744,4.14458 -3.64622,6.8924 -3.64622,6.8924 0,0 -4.155328,1.39675 -2.44874,4.32233 1.70659,2.92557 6.82635,2.43798 6.82635,2.43798 l 3.41318,-0.2438 c 0,0 0.94897,-2.72772 1.68006,-5.65181 0.7317,-2.92656 1.27105,-5.03071 1.24552,-7.2695 -0.0352,-3.08347 -0.32351,-4.12125 -0.96937,-6.84144 -0.71544,-3.01328 -1.76036,-5.74319 -1.76036,-5.74319 -2.02346,0.62587 -4.24934,1.41831 -6.0489,2.20247 -0.10872,0.0474 -0.21345,0.0954 -0.31893,0.14263 z"
       id="path17" />
    <g
       id="g63"
       mask="url(#mask-powermask-path-effect91)"
       style="display:inline"
       clip-path="none">
      <path
         style="display:inline;fill:url(#linearGradient8);fill-opacity:1;stroke:url(#linearGradient6);stroke-width:0.1;stroke-dasharray:none"
         d="m 81.163583,169.87298 c -0.537142,-0.44762 -4.866356,-2.60781 -10.374451,-7.00199 -3.612574,-2.88199 -9.482198,-8.21368 -13.34148,-12.04528 -6.280962,-6.23592 -9.510385,-11.7037 -11.857377,-18.19946 -1.742676,-4.8232 -2.74049,-8.58794 -3.315177,-12.45486 -0.716514,-4.82123 -0.813228,-10.12402 -0.980565,-14.38573 -0.316189,-8.052647 0.658065,-12.1401 2.589154,-20.943866 0.880251,-4.013033 1.538946,-5.120727 2.570663,-7.90547 1.30824,-3.531112 2.616336,-6.724503 4.366081,-9.496877 4.999186,-7.920931 9.343207,-12.685599 13.235414,-16.864099 3.604902,-3.870063 9.345689,-8.793204 12.867451,-10.945623 3.586107,-2.191745 8.750692,-4.970667 12.630206,-7.040456 1.866822,-0.995982 4.208161,-2.150447 7.288862,-3.402454 2.790242,-1.133964 5.676416,-2.368277 7.350766,-3.126705 8.41972,-3.813861 15.75562,-7.043846 15.75562,-7.043846 0,0 -10.6293,11.748176 -18.47171,20.767154 -3.734002,4.294211 -6.175577,6.863888 -7.858509,9.463832 -2.92036,4.511634 -4.097797,7.353536 -5.783687,10.903783 -1.784443,3.757788 -2.79989,9.22585 -2.852527,11.614376 -0.0469,2.128243 0.178162,4.160072 0.564106,6.706211 0.637149,4.203369 2.464465,6.909035 4.522304,9.419748 3.438093,4.194724 7.5363,7.950293 13.789333,9.627937 9.99573,2.681785 7.55775,1.218991 12.92131,3.900775 5.36356,2.68178 6.82635,9.02053 3.41318,12.4337 -3.41318,3.41318 -18.91212,7.20952 -18.91212,7.20952 0,0 -10.831276,4.0052 -14.488249,8.88117 -3.803253,5.07101 -7.167612,14.52811 -5.461023,23.06105 1.706589,8.53293 2.309683,9.43045 4.01627,12.59983 0.9943,1.84655 5.345526,8.71041 5.345526,8.71041 z"
         id="path5" />
      <path
         style="display:inline;fill:url(#linearGradient4);fill-opacity:1;stroke:none;stroke-width:1;stroke-dasharray:none;stroke-opacity:1"
         d="m 117.13015,104.73894 c 0,0 1.189,0.47972 1.89902,1.78915 0.22651,0.41774 0.26595,0.50867 0.30919,0.81953 0.035,0.25128 0.0972,0.65247 0.0687,1.43761 -0.0742,2.03854 -1.90233,4.67292 -3.13929,5.96661 -1.77464,1.85602 -3.92904,3.06175 -7.03391,4.04134 -4.10374,1.29474 -6.00313,1.78183 -8.92931,3.05107 -2.048429,0.88851 -4.781232,3.08383 -5.82193,4.0642 -1.293788,1.21879 -2.858228,2.15102 -4.534246,5.02232 -0.806461,1.3816 -2.365232,3.8093 -2.953043,6.01161 -0.687793,2.5769 -1.218559,5.48453 -1.34647,6.82761 -0.487593,5.11976 1.679506,8.75152 4.068929,12.99229 2.805926,4.97998 10.65007,13.4089 10.65007,13.4089 0,0 5.18549,-2.43798 15.68014,-4.87596 10.49465,-2.43798 20.23526,-8.77674 24.37983,-11.70232 4.14457,-2.92558 16.55014,-15.27662 13.38076,-13.81383 -3.16938,1.46279 -14.48897,1.42253 -22.51453,1.30617 -4.44013,-0.0644 -7.34181,-0.76902 -10.25696,-1.73793 -2.08746,-0.69382 -4.81707,-5.244 -3.76826,-7.58096 1.76828,-3.94007 1.1802,-3.25601 4.08865,-6.68052 4.81369,-5.66781 7.3139,-8.3581 7.3139,-13.96546 0,-5.60736 -15.30566,-11.86933 -15.30566,-11.86933 l 2.15884,2.20976 0.90095,1.25548 0.40455,1.04266 z"
         id="path11"
         transform="translate(4.632167,2.9255791)" />
      <path
         style="display:inline;fill:url(#linearGradient49);fill-opacity:1;stroke:url(#linearGradient10);stroke-width:0.1;stroke-dasharray:none;stroke-opacity:1"
         d="m 115.31658,16.090685 c 0,0 -11.89386,15.978059 -14.94566,20.311479 -2.165647,3.075114 -6.488976,9.528351 -9.257524,15.091333 -2.481467,4.986136 -3.393733,8.616674 -4.115237,11.943509 -0.516723,2.382594 -1.982969,9.647485 1.917802,14.76725 1.970024,2.585656 3.96514,6.262034 8.323925,8.408797 4.391464,2.162857 8.108094,3.645499 11.160154,4.746419 4.18818,1.510732 9.00534,2.28016 13.33776,5.393906 2.14278,1.54003 7.19338,5.737142 8.96829,8.238152 1.99079,2.8052 2.35058,3.75166 2.83069,6.66967 0.17969,1.09214 0.56502,3.22066 0.033,4.70131 -0.44702,1.24407 -1.96544,3.71274 -2.69302,4.3925 -3.48459,3.25555 -8.40076,8.97727 -8.46178,10.7001 -0.062,1.75028 -1.20775,4.98582 7.08139,6.20481 2.71701,0.39956 7.04399,0.90335 10.81136,1.22393 7.72626,0.65745 14.43383,-0.0172 14.43383,-0.0172 0,0 7.14046,-11.11634 3.48349,-25.74424 C 156.5285,106.3361 153.78494,94.515663 147.4038,84.236007 140.03035,72.357801 128.94412,62.291676 127.50649,60.461969 124.82471,57.048794 118.72975,50.22244 116.77937,41.201906 c -1.95039,-9.020535 -2.43799,-15.603089 -2.43799,-18.528668 0,-2.925579 0.9752,-6.582553 0.9752,-6.582553 z"
         id="path10"
         transform="translate(4.632167,2.9255791)" />
    </g>
    <path
       style="fill:#143444;fill-opacity:1;stroke:#143444;stroke-width:0.264583;stroke-opacity:1"
       d="m 117.40794,168.917 c 0,0 -3.43393,-3.9245 -7.03139,-8.17604 -3.59746,-4.25154 -5.63447,-6.25631 -7.56284,-10.7515 -1.93028,-4.49967 -2.24096,-7.11306 -1.92137,-10.01564 0.22137,-2.01049 2.12577,-5.39619 3.1069,-6.54084 0.98112,-1.14464 3.51569,-3.43393 7.44019,-5.5597 3.9245,-2.12577 9.40245,-3.3113 12.26406,-6.70436 2.69394,-3.19425 2.04401,-3.59746 2.04401,-3.59746 0,0 -2.94337,3.76098 -4.90562,4.90563 -1.96225,1.14464 -4.98738,2.08489 -7.35844,3.10689 -2.29218,0.988 -6.29555,3.02513 -8.09428,4.49682 -1.79873,1.47169 -4.9465,5.51883 -5.600583,7.31756 -0.654084,1.79873 -0.483129,6.99526 0.04088,9.68861 0.412843,2.12199 4.333293,9.11629 5.150903,10.42446 0.8176,1.30816 3.02513,4.33329 4.66034,6.25467 1.23594,1.45222 4.98739,5.9685 4.98739,5.9685 z"
       id="path92" />
    <path
       style="fill:#143444;fill-opacity:1;stroke:#143444;stroke-width:0.264583;stroke-opacity:1"
       d="m 120.1878,127.70975 c 0,0 -3.1075,1.76463 -5.23267,6.13204 -1.42658,2.93174 -2.04401,4.04714 -2.53457,7.60372 -0.46973,3.40558 0.57232,5.5597 2.69809,8.17604 2.12577,2.61633 3.1069,3.10689 5.23267,4.29241 2.25807,1.25931 4.82387,2.57546 7.11316,3.22955 2.28929,0.65408 6.37094,1.74603 7.72635,2.08488 1.47168,0.36792 4.37419,0.69497 4.37419,0.69497 l 3.39305,-1.96226 -7.76724,-1.18552 c 0,0 -7.80812,-1.59433 -10.75149,-3.06602 -2.94338,-1.47168 -4.90563,-2.28929 -6.37731,-3.59745 -1.47169,-1.30817 -2.12578,-1.71697 -3.1069,-3.59746 -1.15706,-2.2177 -1.59432,-2.73897 -1.26728,-5.51883 0.32704,-2.77985 1.14464,-5.23266 1.96224,-6.86787 0.81761,-1.63521 2.41194,-3.63834 2.41194,-3.63834 z"
       id="path104" />
    <path
       style="fill:#143444;fill-opacity:1;stroke:#143444;stroke-width:0.264583;stroke-opacity:1"
       d="m 124.9299,166.87299 c 0,0 -3.43394,-2.20754 -7.19491,-5.19178 -3.80423,-3.01857 -7.35844,-6.99052 -8.33957,-8.95277 -0.98112,-1.96225 1.0782,0.8463 2.61634,2.45281 1.8396,1.92137 5.9685,5.60059 8.25779,7.07227 2.2893,1.47169 6.6226,4.04715 6.6226,4.04715 z"
       id="path107" />
  </g>
</svg>
