<?xml version="1.0" encoding="UTF-8" standalone="no"?>
<svg
   height="24px"
   viewBox="0 -960 960 960"
   width="24px"
   fill="#e3e3e3"
   version="1.1"
   id="svg1"
   sodipodi:docname="home_and_garden.svg"
   inkscape:version="1.4.2 (f4327f4, 2025-05-13)"
   xmlns:inkscape="http://www.inkscape.org/namespaces/inkscape"
   xmlns:sodipodi="http://sodipodi.sourceforge.net/DTD/sodipodi-0.dtd"
   xmlns="http://www.w3.org/2000/svg"
   xmlns:svg="http://www.w3.org/2000/svg">
  <defs
     id="defs1" />
  <sodipodi:namedview
     id="namedview1"
     pagecolor="#ffffff"
     bordercolor="#000000"
     borderopacity="0.25"
     inkscape:showpageshadow="2"
     inkscape:pageopacity="0.0"
     inkscape:pagecheckerboard="0"
     inkscape:deskcolor="#d1d1d1"
     inkscape:zoom="51.375"
     inkscape:cx="12"
     inkscape:cy="12"
     inkscape:window-width="2880"
     inkscape:window-height="1514"
     inkscape:window-x="2869"
     inkscape:window-y="-11"
     inkscape:window-maximized="1"
     inkscape:current-layer="svg1" />
  <path
     d="M160-160v-375l-72 55-47-63 439-337 440 336-48 64-392-300-240 184v356h160v80H160Zm540 95q-42 29-92.5 24.5T521-81q-36-36-40.5-86.5T505-260q-29-42-24.5-92.5T521-439q36-36 86.5-40.5T700-455q42-29 92.5-24.5T879-439q36 36 40.5 86.5T895-260q29 42 24.5 92.5T879-81q-36 36-86.5 40.5T700-65Zm0-98 46 32q18 13 39 11t37-18q16-16 18-37t-11-39l-32-46 32-46q13-18 11-39t-18-37q-16-16-37-18t-39 11l-46 32-46-32q-18-13-39-11t-37 18q-16 16-18 37t11 39l32 46-32 46q-13 18-11 39t18 37q16 16 37 18t39-11l46-32Zm35.5-61.5Q750-239 750-260t-14.5-35.5Q721-310 700-310t-35.5 14.5Q650-281 650-260t14.5 35.5Q679-210 700-210t35.5-14.5ZM480-470Zm220 210Z"
     id="path1"
     style="stroke:none;fill:#000000" />
</svg>
