<?xml version="1.0" encoding="UTF-8" standalone="no"?>
<svg
   height="24px"
   viewBox="0 -960 960 960"
   width="24px"
   fill="#e3e3e3"
   version="1.1"
   id="svg1"
   sodipodi:docname="water.svg"
   inkscape:version="1.4.2 (f4327f4, 2025-05-13)"
   xmlns:inkscape="http://www.inkscape.org/namespaces/inkscape"
   xmlns:sodipodi="http://sodipodi.sourceforge.net/DTD/sodipodi-0.dtd"
   xmlns="http://www.w3.org/2000/svg"
   xmlns:svg="http://www.w3.org/2000/svg">
  <defs
     id="defs1" />
  <sodipodi:namedview
     id="namedview1"
     pagecolor="#ffffff"
     bordercolor="#000000"
     borderopacity="0.25"
     inkscape:showpageshadow="2"
     inkscape:pageopacity="0.0"
     inkscape:pagecheckerboard="0"
     inkscape:deskcolor="#d1d1d1"
     inkscape:zoom="51.375"
     inkscape:cx="12"
     inkscape:cy="12"
     inkscape:window-width="2880"
     inkscape:window-height="1514"
     inkscape:window-x="2869"
     inkscape:window-y="-11"
     inkscape:window-maximized="1"
     inkscape:current-layer="svg1" />
  <path
     d="M80-240v-80q38 0 56.5-20t77.5-20q59 0 77.5 20t54.5 20q38 0 56.5-20t77.5-20q57 0 77.5 20t56.5 20q38 0 55.5-20t76.5-20q59 0 77.5 20t56.5 20v80q-57 0-77.5-20T746-280q-36 0-54.5 20T614-240q-57 0-77.5-20T480-280q-38 0-56.5 20T346-240q-59 0-76.5-20T214-280q-38 0-56.5 20T80-240Zm0-160v-80q38 0 56.5-20t77.5-20q57 0 76.5 20t55.5 20q38 0 56.5-20t77.5-20q57 0 77 20t55 20q38 0 56.5-20t77.5-20q57 0 77.5 20t56.5 20v80q-59 0-78.5-20T746-440q-36 0-54.5 20T614-400q-57 0-77.5-20T480-440q-38 0-55.5 20T348-400q-59 0-78.5-20T214-440q-36 0-56.5 20T80-400Zm0-160v-80q38 0 56.5-20t77.5-20q57 0 76.5 20t55.5 20q38 0 56.5-20t77.5-20q57 0 77 20t55 20q38 0 56.5-20t77.5-20q57 0 77.5 20t56.5 20v80q-59 0-78.5-20T746-600q-36 0-54.5 20T614-560q-57 0-77.5-20T480-600q-38 0-55.5 20T348-560q-59 0-78.5-20T214-600q-36 0-56.5 20T80-560Z"
     id="path1"
     style="stroke:none;fill:#000000" />
</svg>
